# 3ds Max Wavefront OBJ Exporter v0.97b - (c)2007 guruware
# File Created: 26.03.2020 17:51:41

#
# object Box002
#

v  -0.0842 3.8632 2.7538
v  -0.0842 2.8698 2.7538
v  0.1322 3.8632 2.7538
v  0.1322 2.8698 2.7538
v  -0.0842 3.8632 2.8777
v  -0.0842 2.8698 2.8777
v  0.1322 3.8632 2.8777
v  0.1322 2.8698 2.8777
v  -0.4727 3.2583 2.7538
v  0.5207 3.2583 2.7538
v  -0.4727 3.4747 2.7538
v  0.5207 3.4747 2.7538
v  -0.4727 3.2583 2.8777
v  0.5207 3.2583 2.8777
v  -0.4727 3.4747 2.8777
v  0.5207 3.4747 2.8777
# 16 vertices

vn 0.0000 -0.0000 -1.0000
vn 0.0000 -0.0000 -1.0000
vn 0.0000 -0.0000 -1.0000
vn 0.0000 -0.0000 -1.0000
vn 0.0000 -0.0000 -1.0000
vn 0.0000 -0.0000 -1.0000
vn -0.0000 0.0000 1.0000
vn -0.0000 0.0000 1.0000
vn -0.0000 0.0000 1.0000
vn -0.0000 0.0000 1.0000
vn -0.0000 0.0000 1.0000
vn -0.0000 0.0000 1.0000
vn -1.0000 0.0000 -0.0000
vn -1.0000 0.0000 -0.0000
vn -1.0000 0.0000 -0.0000
vn -1.0000 0.0000 -0.0000
vn -1.0000 0.0000 -0.0000
vn -1.0000 0.0000 -0.0000
vn -0.0000 -1.0000 -0.0000
vn -0.0000 -1.0000 -0.0000
vn -0.0000 -1.0000 -0.0000
vn -0.0000 -1.0000 -0.0000
vn -0.0000 -1.0000 -0.0000
vn -0.0000 -1.0000 -0.0000
vn 1.0000 -0.0000 0.0000
vn 1.0000 -0.0000 0.0000
vn 1.0000 -0.0000 0.0000
vn 1.0000 -0.0000 0.0000
vn 1.0000 -0.0000 0.0000
vn 1.0000 -0.0000 0.0000
vn 0.0000 1.0000 -0.0000
vn 0.0000 1.0000 -0.0000
vn 0.0000 1.0000 -0.0000
vn 0.0000 1.0000 -0.0000
vn 0.0000 1.0000 -0.0000
vn 0.0000 1.0000 -0.0000
vn -0.0000 0.0000 -1.0000
vn -0.0000 0.0000 -1.0000
vn -0.0000 0.0000 -1.0000
vn -0.0000 0.0000 -1.0000
vn -0.0000 0.0000 -1.0000
vn -0.0000 0.0000 -1.0000
vn 0.0000 -0.0000 1.0000
vn 0.0000 -0.0000 1.0000
vn 0.0000 -0.0000 1.0000
vn 0.0000 -0.0000 1.0000
vn 0.0000 -0.0000 1.0000
vn 0.0000 -0.0000 1.0000
vn -0.0000 -1.0000 -0.0000
vn -0.0000 -1.0000 -0.0000
vn -0.0000 -1.0000 -0.0000
vn -0.0000 -1.0000 -0.0000
vn -0.0000 -1.0000 -0.0000
vn -0.0000 -1.0000 -0.0000
vn 1.0000 0.0000 0.0000
vn 1.0000 0.0000 0.0000
vn 1.0000 0.0000 0.0000
vn 1.0000 0.0000 0.0000
vn 1.0000 0.0000 0.0000
vn 1.0000 0.0000 0.0000
vn 0.0000 1.0000 0.0000
vn 0.0000 1.0000 0.0000
vn 0.0000 1.0000 0.0000
vn 0.0000 1.0000 0.0000
vn 0.0000 1.0000 0.0000
vn 0.0000 1.0000 0.0000
vn -1.0000 -0.0000 -0.0000
vn -1.0000 -0.0000 -0.0000
vn -1.0000 -0.0000 -0.0000
vn -1.0000 -0.0000 -0.0000
vn -1.0000 -0.0000 -0.0000
vn -1.0000 -0.0000 -0.0000
# 72 vertex normals

vt 0.0000 0.3911 0.5000
vt 1.0000 0.3911 0.5000
vt 0.0000 0.6089 0.5000
vt 1.0000 0.6089 0.5000
vt 0.0000 0.3911 1.5000
vt 1.0000 0.3911 1.5000
vt 0.0000 0.6089 1.5000
vt 1.0000 0.6089 1.5000
vt 0.6089 0.0000 0.5000
vt 0.6089 1.0000 0.5000
vt 0.3911 0.0000 0.5000
vt 0.3911 1.0000 0.5000
vt 0.6089 0.0000 1.5000
vt 0.6089 1.0000 1.5000
vt 0.3911 0.0000 1.5000
vt 0.3911 1.0000 1.5000
# 16 texture coords

o Box002
g Box002
f 1/1/1 3/3/2 4/4/3 
f 4/4/4 2/2/5 1/1/6 
f 5/5/7 6/6/8 8/8/9 
f 8/8/10 7/7/11 5/5/12 
f 1/1/13 2/2/14 6/6/15 
f 6/6/16 5/5/17 1/1/18 
f 2/2/19 4/4/20 8/8/21 
f 8/8/22 6/6/23 2/2/24 
f 4/4/25 3/3/26 7/7/27 
f 7/7/28 8/8/29 4/4/30 
f 3/3/31 1/1/32 5/5/33 
f 5/5/34 7/7/35 3/3/36 
f 9/9/37 11/11/38 12/12/39 
f 12/12/40 10/10/41 9/9/42 
f 13/13/43 14/14/44 16/16/45 
f 16/16/46 15/15/47 13/13/48 
f 9/9/49 10/10/50 14/14/51 
f 14/14/52 13/13/53 9/9/54 
f 10/10/55 12/12/56 16/16/57 
f 16/16/58 14/14/59 10/10/60 
f 12/12/61 11/11/62 15/15/63 
f 15/15/64 16/16/65 12/12/66 
f 11/11/67 9/9/68 13/13/69 
f 13/13/70 15/15/71 11/11/72 
# 24 faces

