# 3ds Max Wavefront OBJ Exporter v0.97b - (c)2007 guruware
# File Created: 26.03.2020 20:43:38

#
# object Box001
#

v  -0.4093 3.2758 2.9454
v  0.4760 3.2758 2.9454
v  -0.4093 3.5119 2.9454
v  0.4760 3.5119 2.9454
v  -0.4093 3.2758 2.8274
v  0.4760 3.2758 2.8274
v  -0.4093 3.5119 2.8274
v  0.4760 3.5119 2.8274
v  -0.0847 3.8365 2.9454
v  -0.0847 2.9512 2.9454
v  0.1514 3.8365 2.9454
v  0.1514 2.9512 2.9454
v  -0.0847 3.8365 2.8274
v  -0.0847 2.9512 2.8274
v  0.1514 3.8365 2.8274
v  0.1514 2.9512 2.8274
# 16 vertices

vn 0.0000 -0.0000 1.0000
vn 0.0000 -0.0000 1.0000
vn 0.0000 -0.0000 1.0000
vn 0.0000 -0.0000 1.0000
vn 0.0000 -0.0000 1.0000
vn 0.0000 -0.0000 1.0000
vn 0.0000 0.0000 -1.0000
vn 0.0000 0.0000 -1.0000
vn 0.0000 0.0000 -1.0000
vn 0.0000 0.0000 -1.0000
vn 0.0000 0.0000 -1.0000
vn 0.0000 0.0000 -1.0000
vn 0.0000 -1.0000 -0.0000
vn 0.0000 -1.0000 -0.0000
vn 0.0000 -1.0000 -0.0000
vn 0.0000 -1.0000 -0.0000
vn 0.0000 -1.0000 -0.0000
vn 0.0000 -1.0000 -0.0000
vn 1.0000 0.0000 -0.0000
vn 1.0000 0.0000 -0.0000
vn 1.0000 0.0000 -0.0000
vn 1.0000 0.0000 -0.0000
vn 1.0000 0.0000 -0.0000
vn 1.0000 0.0000 -0.0000
vn 0.0000 1.0000 0.0000
vn 0.0000 1.0000 0.0000
vn 0.0000 1.0000 0.0000
vn 0.0000 1.0000 0.0000
vn 0.0000 1.0000 0.0000
vn 0.0000 1.0000 0.0000
vn -1.0000 0.0000 -0.0000
vn -1.0000 0.0000 -0.0000
vn -1.0000 0.0000 -0.0000
vn -1.0000 0.0000 -0.0000
vn -1.0000 0.0000 -0.0000
vn -1.0000 0.0000 -0.0000
vn -0.0000 0.0000 1.0000
vn -0.0000 0.0000 1.0000
vn -0.0000 0.0000 1.0000
vn -0.0000 0.0000 1.0000
vn -0.0000 0.0000 1.0000
vn -0.0000 0.0000 1.0000
vn 0.0000 0.0000 -1.0000
vn 0.0000 0.0000 -1.0000
vn 0.0000 0.0000 -1.0000
vn 0.0000 0.0000 -1.0000
vn 0.0000 0.0000 -1.0000
vn 0.0000 0.0000 -1.0000
vn -1.0000 -0.0000 -0.0000
vn -1.0000 -0.0000 -0.0000
vn -1.0000 -0.0000 -0.0000
vn -1.0000 -0.0000 -0.0000
vn -1.0000 -0.0000 -0.0000
vn -1.0000 -0.0000 -0.0000
vn -0.0000 -1.0000 0.0000
vn -0.0000 -1.0000 0.0000
vn -0.0000 -1.0000 0.0000
vn -0.0000 -1.0000 0.0000
vn -0.0000 -1.0000 0.0000
vn -0.0000 -1.0000 0.0000
vn 1.0000 0.0000 0.0000
vn 1.0000 0.0000 0.0000
vn 1.0000 0.0000 0.0000
vn 1.0000 0.0000 0.0000
vn 1.0000 0.0000 0.0000
vn 1.0000 0.0000 0.0000
vn 0.0000 1.0000 -0.0000
vn 0.0000 1.0000 -0.0000
vn 0.0000 1.0000 -0.0000
vn 0.0000 1.0000 -0.0000
vn 0.0000 1.0000 -0.0000
vn 0.0000 1.0000 -0.0000
# 72 vertex normals

vt 0.0000 0.3667 0.5000
vt 1.0000 0.3667 0.5000
vt 0.0000 0.6333 0.5000
vt 1.0000 0.6333 0.5000
vt 0.0000 0.3667 -0.5000
vt 1.0000 0.3667 -0.5000
vt 0.0000 0.6333 -0.5000
vt 1.0000 0.6333 -0.5000
vt 0.3667 1.0000 0.5000
vt 0.3667 0.0000 0.5000
vt 0.6333 1.0000 0.5000
vt 0.6333 0.0000 0.5000
vt 0.3667 1.0000 -0.5000
vt 0.3667 -0.0000 -0.5000
vt 0.6333 1.0000 -0.5000
vt 0.6333 -0.0000 -0.5000
# 16 texture coords

o Box001
g Box001
f 3/3/1 1/1/2 4/4/3 
f 2/2/4 4/4/5 1/1/6 
f 6/6/7 5/5/8 8/8/9 
f 7/7/10 8/8/11 5/5/12 
f 2/2/13 1/1/14 6/6/15 
f 5/5/16 6/6/17 1/1/18 
f 4/4/19 2/2/20 8/8/21 
f 6/6/22 8/8/23 2/2/24 
f 3/3/25 4/4/26 7/7/27 
f 8/8/28 7/7/29 4/4/30 
f 1/1/31 3/3/32 5/5/33 
f 7/7/34 5/5/35 3/3/36 
f 11/11/37 9/9/38 12/12/39 
f 10/10/40 12/12/41 9/9/42 
f 14/14/43 13/13/44 16/16/45 
f 15/15/46 16/16/47 13/13/48 
f 10/10/49 9/9/50 14/14/51 
f 13/13/52 14/14/53 9/9/54 
f 12/12/55 10/10/56 16/16/57 
f 14/14/58 16/16/59 10/10/60 
f 11/11/61 12/12/62 15/15/63 
f 16/16/64 15/15/65 12/12/66 
f 9/9/67 11/11/68 13/13/69 
f 15/15/70 13/13/71 11/11/72 
# 24 faces

